<svg xmlns="http://www.w3.org/2000/svg" xmlns:xlink="http://www.w3.org/1999/xlink" xmlns:lucid="lucid" viewBox="-0.9 -13.07 1261.4 1175.67"><g transform="translate(0 0)" lucid:page-tab-id="0_0"><path d="M760 297.73c0-4.42 3.58-8 8-8h104c4.42 0 8 3.58 8 8V372c0 4.42-3.58 8-8 8H768c-4.42 0-8-3.58-8-8z" stroke="#6db1ff" fill="#cfe4ff"/><use xlink:href="#a" transform="matrix(1,0,0,1,760,289.7286562357027) translate(41.529999999999994 48.525)"/><path d="M420 580h240v60H420z" fill="none"/><use xlink:href="#b" transform="matrix(1,0,0,1,420,580) translate(0 14.4)"/><use xlink:href="#c" transform="matrix(1,0,0,1,420,580) translate(56 14.4)"/><use xlink:href="#d" transform="matrix(1,0,0,1,420,580) translate(81 14.4)"/><use xlink:href="#e" transform="matrix(1,0,0,1,420,580) translate(111 14.4)"/><use xlink:href="#f" transform="matrix(1,0,0,1,420,580) translate(163 14.4)"/><use xlink:href="#g" transform="matrix(1,0,0,1,420,580) translate(0 36)"/><use xlink:href="#h" transform="matrix(1,0,0,1,420,580) translate(0 57.6)"/><use xlink:href="#i" transform="matrix(1,0,0,1,420,580) translate(0 79.20000000000002)"/><use xlink:href="#j" transform="matrix(1,0,0,1,420,580) translate(41.95 79.20000000000002)"/><use xlink:href="#k" transform="matrix(1,0,0,1,420,580) translate(97.9 79.20000000000002)"/><use xlink:href="#l" transform="matrix(1,0,0,1,420,580) translate(0 100.80000000000001)"/><use xlink:href="#m" transform="matrix(1,0,0,1,420,580) translate(55 100.80000000000001)"/><use xlink:href="#n" transform="matrix(1,0,0,1,420,580) translate(68.95 100.80000000000001)"/><use xlink:href="#o" transform="matrix(1,0,0,1,420,580) translate(113.9 100.80000000000001)"/><use xlink:href="#p" transform="matrix(1,0,0,1,420,580) translate(0 122.4)"/><use xlink:href="#h" transform="matrix(1,0,0,1,420,580) translate(0 144)"/><use xlink:href="#i" transform="matrix(1,0,0,1,420,580) translate(0 165.6)"/><use xlink:href="#j" transform="matrix(1,0,0,1,420,580) translate(41.95 165.6)"/><use xlink:href="#q" transform="matrix(1,0,0,1,420,580) translate(97.9 165.6)"/><use xlink:href="#l" transform="matrix(1,0,0,1,420,580) translate(0 187.2)"/><use xlink:href="#m" transform="matrix(1,0,0,1,420,580) translate(55 187.2)"/><use xlink:href="#n" transform="matrix(1,0,0,1,420,580) translate(68.95 187.2)"/><use xlink:href="#r" transform="matrix(1,0,0,1,420,580) translate(113.9 187.2)"/><use xlink:href="#s" transform="matrix(1,0,0,1,420,580) translate(173.9 187.2)"/><use xlink:href="#t" transform="matrix(1,0,0,1,420,580) translate(0 208.79999999999998)"/><use xlink:href="#u" transform="matrix(1,0,0,1,420,580) translate(70.85000000000001 208.79999999999998)"/><use xlink:href="#r" transform="matrix(1,0,0,1,420,580) translate(100.85000000000001 208.79999999999998)"/><use xlink:href="#v" transform="matrix(1,0,0,1,420,580) translate(160.85000000000002 208.79999999999998)"/><use xlink:href="#w" transform="matrix(1,0,0,1,420,580) translate(0 230.39999999999998)"/><use xlink:href="#h" transform="matrix(1,0,0,1,420,580) translate(0 251.99999999999997)"/><use xlink:href="#i" transform="matrix(1,0,0,1,420,580) translate(0 273.59999999999997)"/><use xlink:href="#x" transform="matrix(1,0,0,1,420,580) translate(41.95 273.59999999999997)"/><use xlink:href="#y" transform="matrix(1,0,0,1,420,580) translate(71.75 273.59999999999997)"/><use xlink:href="#z" transform="matrix(1,0,0,1,420,580) translate(101.75 273.59999999999997)"/><use xlink:href="#A" transform="matrix(1,0,0,1,420,580) translate(140.75 273.59999999999997)"/><use xlink:href="#B" transform="matrix(1,0,0,1,420,580) translate(174.75 273.59999999999997)"/><use xlink:href="#C" transform="matrix(1,0,0,1,420,580) translate(0 295.2)"/><use xlink:href="#D" transform="matrix(1,0,0,1,420,580) translate(35 295.2)"/><use xlink:href="#E" transform="matrix(1,0,0,1,420,580) translate(84.95 295.2)"/><use xlink:href="#x" transform="matrix(1,0,0,1,420,580) translate(129.95 295.2)"/><use xlink:href="#F" transform="matrix(1,0,0,1,420,580) translate(159.75 295.2)"/><use xlink:href="#G" transform="matrix(1,0,0,1,420,580) translate(0 316.8)"/><use xlink:href="#m" transform="matrix(1,0,0,1,420,580) translate(80.9 316.8)"/><use xlink:href="#r" transform="matrix(1,0,0,1,420,580) translate(94.85000000000001 316.8)"/><use xlink:href="#H" transform="matrix(1,0,0,1,420,580) translate(154.85000000000002 316.8)"/><use xlink:href="#s" transform="matrix(1,0,0,1,420,580) translate(172.8 316.8)"/><use xlink:href="#I" transform="matrix(1,0,0,1,420,580) translate(0 338.40000000000003)"/><path d="M698.7 343v10m0 10v20.02m0 10v20m0 10v20.02m0 10v20m0 10.02v20m0 10v20.02m0 10v20m0 10.02v20m0 10v20.02m0 10v20m0 10v20.02m0 10v20m0 10.02v20m0 10v20.02m0 10v20m0 10v20.02m0 10v20.02m0 10v20m0 10v20.02m0 10v20m0 10.02v20m0 10v20.02m0 10v20m0 10v20.02m0 10v20m0 10.02v20m0 10v10.02" stroke="#333" fill="none"/><path d="M699.2 343h-1v-.5h1z" stroke="#333" stroke-width=".05" fill="#333"/><path d="M698.7 1153.32v.52" stroke="#333" fill="none"/><path d="M679.76 417.73c0-4.42 3.58-8 8-8h24c4.42 0 8 3.58 8 8v693.55c0 4.42-3.58 8-8 8h-24c-4.42 0-8-3.58-8-8z" stroke="#f2f2f2" fill="#ced4db"/><path d="M1164.96 343v9.66m0 9.66v19.32m0 9.67v19.33m0 9.66v19.3m0 9.67v19.33m0 9.66v19.32m0 9.66v19.32m0 9.66v19.33m0 9.66v19.33m0 9.66v19.3m0 9.67v19.33m0 9.66v19.32m0 9.66v19.32m0 9.66v19.33m0 9.66v9.67l-.72 1.75-1.76.73-1.75.73-.73 1.75v9.66m0 9.65v19.33m0 9.66v19.32m0 9.66v19.32m0 9.66v19.33m0 9.66v19.3m0 9.67v19.32m0 9.65v19.33m0 9.66v19.32m0 9.66v19.32m0 9.66v19.33m0 9.66v19.3m0 9.67v19.32m0 9.66v19.32m0 9.66v9.66" stroke="#333" fill="none"/><path d="M1165.46 343h-1v-.5h1z" stroke="#333" stroke-width=".05" fill="#333"/><path d="M1160 1159.5v.5" stroke="#333" fill="none"/><path d="M1144.96 428c0-4.42 3.58-8 8-8h24c4.42 0 8 3.58 8 8v684c0 4.42-3.58 8-8 8h-24c-4.42 0-8-3.58-8-8z" stroke="#f2f2f2" fill="#ced4db"/><path d="M603.65 228c0-4.42 3.58-8 8-8h174.07c4.42 0 8 3.58 8 8v106c0 4.42-3.58 8-8 8H611.65c-4.42 0-8-3.58-8-8z" stroke="#9391ff" fill="#dedeff"/><g><use xlink:href="#J" transform="matrix(1,0,0,1,611.6496896262572,228) translate(69.25308641975309 56.55555555555555)"/></g><path d="M1069.92 228c0-4.42 3.6-8 8-8H1252c4.42 0 8 3.58 8 8v106c0 4.42-3.58 8-8 8h-174.08c-4.4 0-8-3.58-8-8z" stroke="#ff8f8f" fill="#ffd9d9"/><g><use xlink:href="#K" transform="matrix(1,0,0,1,1077.9247618701531,228) translate(31.870370370370367 56.55555555555555)"/><use xlink:href="#L" transform="matrix(1,0,0,1,1077.9247618701531,228) translate(71.22839506172839 56.55555555555555)"/></g><path d="M403.4 277.42c0 10.9-8.84 19.75-19.75 19.75-10.9 0-19.75-8.85-19.75-19.75s8.84-19.75 19.75-19.75c10.9 0 19.75 8.84 19.75 19.75z" stroke="#333" fill="#fff"/><path d="M383.65 297.17v47.3c0 4.4 1.92 11.02 4.28 14.76l35.72 56.44m-40-63.2l-40 63.2m0-98.75h80" stroke="#333" fill="none"/><path d="M343.65 265.67c0-4.42 3.58-8 8-8h64c4.42 0 8 3.58 8 8v164c0 4.4-3.58 8-8 8h-64c-4.42 0-8-3.6-8-8z" fill="none"/><g><use xlink:href="#M" transform="matrix(1,0,0,1,263.6496896262572,415.6655519423589) translate(101.28395061728395 14.555555555555555)"/></g><path d="M384.15 353.4l2.06.85.86 2.06v9.95m0 9.94v19.88m0 9.94v19.88m0 9.94v19.9m0 9.93v19.88m0 9.95v19.88m0 9.94v19.88m0 9.95v19.88m0 9.94v19.9m0 9.93v19.88m0 9.94v19.9m0 9.93v19.88m0 9.95v19.88m0 9.94V754m0 9.93v19.88m0 9.95v19.9m0 9.93v19.88m0 9.94v19.9m0 9.93v19.88m0 9.96v19.88m0 9.94v19.9m0 9.93v19.9m0 9.93v19.9m0 9.93v19.88m0 9.95v19.87m0 9.94v19.9m0 9.94v19.88m0 9.94v9.94M384.16 353.4h-3.5M387.06 1161.6v.5M387.56 495.67h275.32M387.57 495.67h-.5" stroke="#333" fill="none"/><path d="M677.64 495.67l-14.26 4.63v-9.27z" stroke="#333" fill="#333"/><g><use xlink:href="#N" transform="matrix(1,0,0,1,488.71466054465157,499.66555194235883) translate(0.005000000000002558 14.222222222222223)"/><use xlink:href="#O" transform="matrix(1,0,0,1,488.71466054465157,499.66555194235883) translate(57.28895061728396 14.222222222222223)"/></g><path d="M720.76 501.2h407.32" stroke="#3a414a" fill="none"/><path d="M720.77 501.7h-.5v-1h.5z" stroke="#3a414a" stroke-width=".05" fill="#3a414a"/><path d="M1142.84 501.2l-14.26 4.64v-9.28z" stroke="#3a414a" fill="#3a414a"/><g><use xlink:href="#P" transform="matrix(1,0,0,1,830.5116130822914,475.6000000000001) translate(0.0049999999999954525 14.4)"/><use xlink:href="#Q" transform="matrix(1,0,0,1,830.5116130822914,475.6000000000001) translate(41.955 14.4)"/><use xlink:href="#R" transform="matrix(1,0,0,1,830.5116130822914,475.6000000000001) translate(106.905 14.4)"/><use xlink:href="#S" transform="matrix(1,0,0,1,830.5116130822914,475.6000000000001) translate(143.805 14.4)"/></g><path d="M1143.96 642H736.64" stroke="#3a414a" fill="none"/><path d="M1144.46 642.5h-.5v-1h.5z" stroke="#3a414a" stroke-width=".05" fill="#3a414a"/><path d="M721.88 642l14.26-4.64v9.28z" stroke="#3a414a" fill="#3a414a"/><g><use xlink:href="#T" transform="matrix(1,0,0,1,859.4366130822914,646.0000000000001) translate(0.0049999999999954525 14.4)"/><use xlink:href="#U" transform="matrix(1,0,0,1,859.4366130822914,646.0000000000001) translate(64.905 14.4)"/></g><path d="M678.76 640H403.44" stroke="#3a414a" fill="none"/><path d="M679.26 640.5h-.5v-1h.5z" stroke="#3a414a" stroke-width=".05" fill="#3a414a"/><path d="M388.68 640l14.26-4.64v9.28z" stroke="#3a414a" fill="#3a414a"/><defs><path d="M185-189c-5-48-123-54-124 2 14 75 158 14 163 119 3 78-121 87-175 55-17-10-28-26-33-46l33-7c5 56 141 63 141-1 0-78-155-14-162-118-5-82 145-84 179-34 5 7 8 16 11 25" id="V"/><path d="M30-248c118-7 216 8 213 122C240-48 200 0 122 0H30v-248zM63-27c89 8 146-16 146-99s-60-101-146-95v194" id="W"/><path d="M194 0L95-120 63-95V0H30v-248h33v124l119-124h40L117-140 236 0h-42" id="X"/><g id="a"><use transform="matrix(0.05,0,0,0.05,0,0)" xlink:href="#V"/><use transform="matrix(0.05,0,0,0.05,12,0)" xlink:href="#W"/><use transform="matrix(0.05,0,0,0.05,24.950000000000003,0)" xlink:href="#X"/><path d="M-.9 1.25h38.75v1.32H-.9z"/></g><path fill="#3a414a" d="M160-131c35 5 61 23 61 61C221 17 115-2 30 0v-248c76 3 177-17 177 60 0 33-19 50-47 57zm-97-11c50-1 110 9 110-42 0-47-63-36-110-37v79zm0 115c55-2 124 14 124-45 0-56-70-42-124-44v89" id="Y"/><path fill="#3a414a" d="M141-36C126-15 110 5 73 4 37 3 15-17 15-53c-1-64 63-63 125-63 3-35-9-54-41-54-24 1-41 7-42 31l-33-3c5-37 33-52 76-52 45 0 72 20 72 64v82c-1 20 7 32 28 27v20c-31 9-61-2-59-35zM48-53c0 20 12 33 32 33 41-3 63-29 60-74-43 2-92-5-92 41" id="Z"/><path fill="#3a414a" d="M135-143c-3-34-86-38-87 0 15 53 115 12 119 90S17 21 10-45l28-5c4 36 97 45 98 0-10-56-113-15-118-90-4-57 82-63 122-42 12 7 21 19 24 35" id="aa"/><path fill="#3a414a" d="M100-194c63 0 86 42 84 106H49c0 40 14 67 53 68 26 1 43-12 49-29l28 8c-11 28-37 45-77 45C44 4 14-33 15-96c1-61 26-98 85-98zm52 81c6-60-76-77-97-28-3 7-6 17-6 28h103" id="ab"/><path fill="#3a414a" d="M85-194c31 0 48 13 60 33l-1-100h32l1 261h-30c-2-10 0-23-3-31C134-8 116 4 85 4 32 4 16-35 15-94c0-66 23-100 70-100zm9 24c-40 0-46 34-46 75 0 40 6 74 45 74 42 0 51-32 51-76 0-42-9-74-50-73" id="ac"/><g id="b"><use transform="matrix(0.05,0,0,0.05,0,0)" xlink:href="#Y"/><use transform="matrix(0.05,0,0,0.05,12,0)" xlink:href="#Z"/><use transform="matrix(0.05,0,0,0.05,22,0)" xlink:href="#aa"/><use transform="matrix(0.05,0,0,0.05,31,0)" xlink:href="#ab"/><use transform="matrix(0.05,0,0,0.05,41,0)" xlink:href="#ac"/></g><path fill="#3a414a" d="M100-194c62-1 85 37 85 99 1 63-27 99-86 99S16-35 15-95c0-66 28-99 85-99zM99-20c44 1 53-31 53-75 0-43-8-75-51-75s-53 32-53 75 10 74 51 75" id="ad"/><path fill="#3a414a" d="M117-194c89-4 53 116 60 194h-32v-121c0-31-8-49-39-48C34-167 62-67 57 0H25l-1-190h30c1 10-1 24 2 32 11-22 29-35 61-36" id="ae"/><g id="c"><use transform="matrix(0.05,0,0,0.05,0,0)" xlink:href="#ad"/><use transform="matrix(0.05,0,0,0.05,10,0)" xlink:href="#ae"/></g><path fill="#3a414a" d="M59-47c-2 24 18 29 38 22v24C64 9 27 4 27-40v-127H5v-23h24l9-43h21v43h35v23H59v120" id="af"/><path fill="#3a414a" d="M106-169C34-169 62-67 57 0H25v-261h32l-1 103c12-21 28-36 61-36 89 0 53 116 60 194h-32v-121c2-32-8-49-39-48" id="ag"/><g id="d"><use transform="matrix(0.05,0,0,0.05,0,0)" xlink:href="#af"/><use transform="matrix(0.05,0,0,0.05,5,0)" xlink:href="#ag"/><use transform="matrix(0.05,0,0,0.05,15,0)" xlink:href="#ab"/></g><path fill="#3a414a" d="M96-169c-40 0-48 33-48 73s9 75 48 75c24 0 41-14 43-38l32 2c-6 37-31 61-74 61-59 0-76-41-82-99-10-93 101-131 147-64 4 7 5 14 7 22l-32 3c-4-21-16-35-41-35" id="ah"/><path fill="#3a414a" d="M143 0L79-87 56-68V0H24v-261h32v163l83-92h37l-77 82L181 0h-38" id="ai"/><g id="e"><use transform="matrix(0.05,0,0,0.05,0,0)" xlink:href="#ah"/><use transform="matrix(0.05,0,0,0.05,9,0)" xlink:href="#ag"/><use transform="matrix(0.05,0,0,0.05,19,0)" xlink:href="#ab"/><use transform="matrix(0.05,0,0,0.05,29,0)" xlink:href="#ah"/><use transform="matrix(0.05,0,0,0.05,38,0)" xlink:href="#ai"/></g><path fill="#3a414a" d="M206 0h-36l-40-164L89 0H53L-1-190h32L70-26l43-164h34l41 164 42-164h31" id="aj"/><path fill="#3a414a" d="M24-231v-30h32v30H24zM24 0v-190h32V0H24" id="ak"/><g id="f"><use transform="matrix(0.05,0,0,0.05,0,0)" xlink:href="#aj"/><use transform="matrix(0.05,0,0,0.05,12.950000000000001,0)" xlink:href="#ak"/><use transform="matrix(0.05,0,0,0.05,16.900000000000002,0)" xlink:href="#af"/><use transform="matrix(0.05,0,0,0.05,21.900000000000002,0)" xlink:href="#ag"/></g><path fill="#3a414a" d="M114-163C36-179 61-72 57 0H25l-1-190h30c1 12-1 29 2 39 6-27 23-49 58-41v29" id="al"/><path fill="#3a414a" d="M108 0H70L1-190h34L89-25l56-165h34" id="am"/><path fill="#3a414a" d="M33 0v-38h34V0H33" id="an"/><g id="g"><use transform="matrix(0.05,0,0,0.05,0,0)" xlink:href="#aa"/><use transform="matrix(0.05,0,0,0.05,9,0)" xlink:href="#ab"/><use transform="matrix(0.05,0,0,0.05,19,0)" xlink:href="#al"/><use transform="matrix(0.05,0,0,0.05,24.95,0)" xlink:href="#am"/><use transform="matrix(0.05,0,0,0.05,33.95,0)" xlink:href="#ak"/><use transform="matrix(0.05,0,0,0.05,37.900000000000006,0)" xlink:href="#ah"/><use transform="matrix(0.05,0,0,0.05,46.900000000000006,0)" xlink:href="#ab"/><use transform="matrix(0.05,0,0,0.05,56.900000000000006,0)" xlink:href="#an"/></g><path fill="#3a414a" d="M185-189c-5-48-123-54-124 2 14 75 158 14 163 119 3 78-121 87-175 55-17-10-28-26-33-46l33-7c5 56 141 63 141-1 0-78-155-14-162-118-5-82 145-84 179-34 5 7 8 16 11 25" id="ao"/><path fill="#3a414a" d="M30-248c118-7 216 8 213 122C240-48 200 0 122 0H30v-248zM63-27c89 8 146-16 146-99s-60-101-146-95v194" id="ap"/><path fill="#3a414a" d="M194 0L95-120 63-95V0H30v-248h33v124l119-124h40L117-140 236 0h-42" id="aq"/><g id="i"><use transform="matrix(0.05,0,0,0.05,0,0)" xlink:href="#ao"/><use transform="matrix(0.05,0,0,0.05,12,0)" xlink:href="#ap"/><use transform="matrix(0.05,0,0,0.05,24.950000000000003,0)" xlink:href="#aq"/></g><g id="j"><use transform="matrix(0.05,0,0,0.05,0,0)" xlink:href="#aa"/><use transform="matrix(0.05,0,0,0.05,9,0)" xlink:href="#ag"/><use transform="matrix(0.05,0,0,0.05,19,0)" xlink:href="#ad"/><use transform="matrix(0.05,0,0,0.05,29,0)" xlink:href="#aj"/><use transform="matrix(0.05,0,0,0.05,41.95,0)" xlink:href="#aa"/></g><path fill="#3a414a" d="M16-82v-28h88v28H16" id="ar"/><path fill="#3a414a" d="M210-169c-67 3-38 105-44 169h-31v-121c0-29-5-50-35-48C34-165 62-65 56 0H25l-1-190h30c1 10-1 24 2 32 10-44 99-50 107 0 11-21 27-35 58-36 85-2 47 119 55 194h-31v-121c0-29-5-49-35-48" id="as"/><path fill="#3a414a" d="M115-194c53 0 69 39 70 98 0 66-23 100-70 100C84 3 66-7 56-30L54 0H23l1-261h32v101c10-23 28-34 59-34zm-8 174c40 0 45-34 45-75 0-40-5-75-45-74-42 0-51 32-51 76 0 43 10 73 51 73" id="at"/><path fill="#3a414a" d="M24 0v-261h32V0H24" id="au"/><g id="k"><use transform="matrix(0.05,0,0,0.05,0,0)" xlink:href="#ae"/><use transform="matrix(0.05,0,0,0.05,10,0)" xlink:href="#ad"/><use transform="matrix(0.05,0,0,0.05,20,0)" xlink:href="#ae"/><use transform="matrix(0.05,0,0,0.05,30,0)" xlink:href="#ar"/><use transform="matrix(0.05,0,0,0.05,35.95,0)" xlink:href="#ac"/><use transform="matrix(0.05,0,0,0.05,45.95,0)" xlink:href="#ak"/><use transform="matrix(0.05,0,0,0.05,49.900000000000006,0)" xlink:href="#aa"/><use transform="matrix(0.05,0,0,0.05,58.900000000000006,0)" xlink:href="#as"/><use transform="matrix(0.05,0,0,0.05,73.85000000000001,0)" xlink:href="#ak"/><use transform="matrix(0.05,0,0,0.05,77.80000000000001,0)" xlink:href="#aa"/><use transform="matrix(0.05,0,0,0.05,86.80000000000001,0)" xlink:href="#aa"/><use transform="matrix(0.05,0,0,0.05,95.80000000000001,0)" xlink:href="#Z"/><use transform="matrix(0.05,0,0,0.05,105.80000000000001,0)" xlink:href="#at"/><use transform="matrix(0.05,0,0,0.05,115.80000000000001,0)" xlink:href="#au"/><use transform="matrix(0.05,0,0,0.05,119.75,0)" xlink:href="#ab"/></g><path fill="#3a414a" d="M115-194c55 1 70 41 70 98S169 2 115 4C84 4 66-9 55-30l1 105H24l-1-265h31l2 30c10-21 28-34 59-34zm-8 174c40 0 45-34 45-75s-6-73-45-74c-42 0-51 32-51 76 0 43 10 73 51 73" id="av"/><path fill="#3a414a" d="M84 4C-5 8 30-112 23-190h32v120c0 31 7 50 39 49 72-2 45-101 50-169h31l1 190h-30c-1-10 1-25-2-33-11 22-28 36-60 37" id="aw"/><g id="l"><use transform="matrix(0.05,0,0,0.05,0,0)" xlink:href="#av"/><use transform="matrix(0.05,0,0,0.05,10,0)" xlink:href="#ad"/><use transform="matrix(0.05,0,0,0.05,20,0)" xlink:href="#av"/><use transform="matrix(0.05,0,0,0.05,30,0)" xlink:href="#aw"/><use transform="matrix(0.05,0,0,0.05,40,0)" xlink:href="#av"/></g><path fill="#3a414a" d="M101-234c-31-9-42 10-38 44h38v23H63V0H32v-167H5v-23h27c-7-52 17-82 69-68v24" id="ax"/><g id="m"><use transform="matrix(0.05,0,0,0.05,0,0)" xlink:href="#ak"/><use transform="matrix(0.05,0,0,0.05,3.95,0)" xlink:href="#ax"/></g><g id="n"><use transform="matrix(0.05,0,0,0.05,0,0)" xlink:href="#ax"/><use transform="matrix(0.05,0,0,0.05,5,0)" xlink:href="#ad"/><use transform="matrix(0.05,0,0,0.05,15,0)" xlink:href="#al"/><use transform="matrix(0.05,0,0,0.05,20.95,0)" xlink:href="#ah"/><use transform="matrix(0.05,0,0,0.05,29.950000000000003,0)" xlink:href="#ab"/></g><g id="o"><use transform="matrix(0.05,0,0,0.05,0,0)" xlink:href="#aw"/><use transform="matrix(0.05,0,0,0.05,10,0)" xlink:href="#av"/><use transform="matrix(0.05,0,0,0.05,20,0)" xlink:href="#ac"/><use transform="matrix(0.05,0,0,0.05,30,0)" xlink:href="#Z"/><use transform="matrix(0.05,0,0,0.05,40,0)" xlink:href="#af"/><use transform="matrix(0.05,0,0,0.05,45,0)" xlink:href="#ab"/></g><path fill="#3a414a" d="M145-31C134-9 116 4 85 4 32 4 16-35 15-94c0-59 17-99 70-100 32-1 48 14 60 33 0-11-1-24 2-32h30l-1 268h-32zM93-21c41 0 51-33 51-76s-8-73-50-73c-40 0-46 35-46 75s5 74 45 74" id="ay"/><g id="p"><use transform="matrix(0.05,0,0,0.05,0,0)" xlink:href="#al"/><use transform="matrix(0.05,0,0,0.05,5.95,0)" xlink:href="#ab"/><use transform="matrix(0.05,0,0,0.05,15.949999999999998,0)" xlink:href="#ay"/><use transform="matrix(0.05,0,0,0.05,25.950000000000003,0)" xlink:href="#aw"/><use transform="matrix(0.05,0,0,0.05,35.95,0)" xlink:href="#ak"/><use transform="matrix(0.05,0,0,0.05,39.900000000000006,0)" xlink:href="#al"/><use transform="matrix(0.05,0,0,0.05,45.85000000000001,0)" xlink:href="#ab"/><use transform="matrix(0.05,0,0,0.05,55.85,0)" xlink:href="#ac"/><use transform="matrix(0.05,0,0,0.05,65.85000000000001,0)" xlink:href="#an"/></g><g id="q"><use transform="matrix(0.05,0,0,0.05,0,0)" xlink:href="#ac"/><use transform="matrix(0.05,0,0,0.05,10,0)" xlink:href="#ak"/><use transform="matrix(0.05,0,0,0.05,13.949999999999998,0)" xlink:href="#aa"/><use transform="matrix(0.05,0,0,0.05,22.95,0)" xlink:href="#as"/><use transform="matrix(0.05,0,0,0.05,37.9,0)" xlink:href="#ak"/><use transform="matrix(0.05,0,0,0.05,41.85,0)" xlink:href="#aa"/><use transform="matrix(0.05,0,0,0.05,50.85,0)" xlink:href="#aa"/><use transform="matrix(0.05,0,0,0.05,59.85,0)" xlink:href="#Z"/><use transform="matrix(0.05,0,0,0.05,69.85,0)" xlink:href="#at"/><use transform="matrix(0.05,0,0,0.05,79.85,0)" xlink:href="#au"/><use transform="matrix(0.05,0,0,0.05,83.8,0)" xlink:href="#ab"/></g><g id="r"><use transform="matrix(0.05,0,0,0.05,0,0)" xlink:href="#aw"/><use transform="matrix(0.05,0,0,0.05,10,0)" xlink:href="#av"/><use transform="matrix(0.05,0,0,0.05,20,0)" xlink:href="#ac"/><use transform="matrix(0.05,0,0,0.05,30,0)" xlink:href="#Z"/><use transform="matrix(0.05,0,0,0.05,40,0)" xlink:href="#af"/><use transform="matrix(0.05,0,0,0.05,45,0)" xlink:href="#ab"/></g><g id="s"><use transform="matrix(0.05,0,0,0.05,0,0)" xlink:href="#ae"/><use transform="matrix(0.05,0,0,0.05,10,0)" xlink:href="#ad"/><use transform="matrix(0.05,0,0,0.05,20,0)" xlink:href="#af"/></g><g id="t"><use transform="matrix(0.05,0,0,0.05,0,0)" xlink:href="#al"/><use transform="matrix(0.05,0,0,0.05,5.95,0)" xlink:href="#ab"/><use transform="matrix(0.05,0,0,0.05,15.949999999999998,0)" xlink:href="#ay"/><use transform="matrix(0.05,0,0,0.05,25.950000000000003,0)" xlink:href="#aw"/><use transform="matrix(0.05,0,0,0.05,35.95,0)" xlink:href="#ak"/><use transform="matrix(0.05,0,0,0.05,39.900000000000006,0)" xlink:href="#al"/><use transform="matrix(0.05,0,0,0.05,45.85000000000001,0)" xlink:href="#ab"/><use transform="matrix(0.05,0,0,0.05,55.85,0)" xlink:href="#ac"/></g><g id="u"><use transform="matrix(0.05,0,0,0.05,0,0)" xlink:href="#at"/><use transform="matrix(0.05,0,0,0.05,10,0)" xlink:href="#aw"/><use transform="matrix(0.05,0,0,0.05,20,0)" xlink:href="#af"/></g><g id="v"><use transform="matrix(0.05,0,0,0.05,0,0)" xlink:href="#ak"/><use transform="matrix(0.05,0,0,0.05,3.95,0)" xlink:href="#aa"/></g><g id="w"><use transform="matrix(0.05,0,0,0.05,0,0)" xlink:href="#al"/><use transform="matrix(0.05,0,0,0.05,5.95,0)" xlink:href="#ab"/><use transform="matrix(0.05,0,0,0.05,15.949999999999998,0)" xlink:href="#ah"/><use transform="matrix(0.05,0,0,0.05,24.95,0)" xlink:href="#ad"/><use transform="matrix(0.05,0,0,0.05,34.95,0)" xlink:href="#as"/><use transform="matrix(0.05,0,0,0.05,49.900000000000006,0)" xlink:href="#as"/><use transform="matrix(0.05,0,0,0.05,64.85000000000001,0)" xlink:href="#ab"/><use transform="matrix(0.05,0,0,0.05,74.85000000000001,0)" xlink:href="#ae"/><use transform="matrix(0.05,0,0,0.05,84.85000000000001,0)" xlink:href="#ac"/><use transform="matrix(0.05,0,0,0.05,94.85000000000001,0)" xlink:href="#ab"/><use transform="matrix(0.05,0,0,0.05,104.85000000000001,0)" xlink:href="#ac"/><use transform="matrix(0.05,0,0,0.05,114.85000000000001,0)" xlink:href="#an"/></g><g id="x"><use transform="matrix(0.05,0,0,0.05,0,0)" xlink:href="#aj"/><use transform="matrix(0.05,0,0,0.05,12.950000000000001,0)" xlink:href="#ak"/><use transform="matrix(0.05,0,0,0.05,16.900000000000002,0)" xlink:href="#au"/><use transform="matrix(0.05,0,0,0.05,20.85,0)" xlink:href="#au"/></g><g id="y"><use transform="matrix(0.05,0,0,0.05,0,0)" xlink:href="#ae"/><use transform="matrix(0.05,0,0,0.05,10,0)" xlink:href="#ad"/><use transform="matrix(0.05,0,0,0.05,20,0)" xlink:href="#af"/></g><g id="z"><use transform="matrix(0.05,0,0,0.05,0,0)" xlink:href="#af"/><use transform="matrix(0.05,0,0,0.05,5,0)" xlink:href="#Z"/><use transform="matrix(0.05,0,0,0.05,15,0)" xlink:href="#ai"/><use transform="matrix(0.05,0,0,0.05,24,0)" xlink:href="#ab"/></g><path fill="#3a414a" d="M179-190L93 31C79 59 56 82 12 73V49c39 6 53-20 64-50L1-190h34L92-34l54-156h33" id="az"/><g id="A"><use transform="matrix(0.05,0,0,0.05,0,0)" xlink:href="#Z"/><use transform="matrix(0.05,0,0,0.05,10,0)" xlink:href="#ae"/><use transform="matrix(0.05,0,0,0.05,20,0)" xlink:href="#az"/></g><g id="B"><use transform="matrix(0.05,0,0,0.05,0,0)" xlink:href="#Z"/><use transform="matrix(0.05,0,0,0.05,10,0)" xlink:href="#ah"/><use transform="matrix(0.05,0,0,0.05,19,0)" xlink:href="#af"/><use transform="matrix(0.05,0,0,0.05,24,0)" xlink:href="#ak"/><use transform="matrix(0.05,0,0,0.05,27.950000000000003,0)" xlink:href="#ad"/><use transform="matrix(0.05,0,0,0.05,37.95,0)" xlink:href="#ae"/></g><g id="C"><use transform="matrix(0.05,0,0,0.05,0,0)" xlink:href="#Z"/><use transform="matrix(0.05,0,0,0.05,10,0)" xlink:href="#ae"/><use transform="matrix(0.05,0,0,0.05,20,0)" xlink:href="#ac"/></g><g id="D"><use transform="matrix(0.05,0,0,0.05,0,0)" xlink:href="#ag"/><use transform="matrix(0.05,0,0,0.05,10,0)" xlink:href="#ad"/><use transform="matrix(0.05,0,0,0.05,20,0)" xlink:href="#as"/><use transform="matrix(0.05,0,0,0.05,34.95,0)" xlink:href="#ab"/></g><path fill="#3a414a" d="M177-190C167-65 218 103 67 71c-23-6-38-20-44-43l32-5c15 47 100 32 89-28v-30C133-14 115 1 83 1 29 1 15-40 15-95c0-56 16-97 71-98 29-1 48 16 59 35 1-10 0-23 2-32h30zM94-22c36 0 50-32 50-73 0-42-14-75-50-75-39 0-46 34-46 75s6 73 46 73" id="aA"/><g id="E"><use transform="matrix(0.05,0,0,0.05,0,0)" xlink:href="#av"/><use transform="matrix(0.05,0,0,0.05,10,0)" xlink:href="#Z"/><use transform="matrix(0.05,0,0,0.05,20,0)" xlink:href="#aA"/><use transform="matrix(0.05,0,0,0.05,30,0)" xlink:href="#ab"/></g><g id="F"><use transform="matrix(0.05,0,0,0.05,0,0)" xlink:href="#at"/><use transform="matrix(0.05,0,0,0.05,10,0)" xlink:href="#ab"/></g><g id="G"><use transform="matrix(0.05,0,0,0.05,0,0)" xlink:href="#ac"/><use transform="matrix(0.05,0,0,0.05,10,0)" xlink:href="#ak"/><use transform="matrix(0.05,0,0,0.05,13.949999999999998,0)" xlink:href="#aa"/><use transform="matrix(0.05,0,0,0.05,22.95,0)" xlink:href="#av"/><use transform="matrix(0.05,0,0,0.05,32.95,0)" xlink:href="#au"/><use transform="matrix(0.05,0,0,0.05,36.900000000000006,0)" xlink:href="#Z"/><use transform="matrix(0.05,0,0,0.05,46.900000000000006,0)" xlink:href="#az"/><use transform="matrix(0.05,0,0,0.05,55.900000000000006,0)" xlink:href="#ab"/><use transform="matrix(0.05,0,0,0.05,65.9,0)" xlink:href="#ac"/></g><g id="H"><use transform="matrix(0.05,0,0,0.05,0,0)" xlink:href="#ak"/><use transform="matrix(0.05,0,0,0.05,3.95,0)" xlink:href="#aa"/></g><g id="I"><use transform="matrix(0.05,0,0,0.05,0,0)" xlink:href="#al"/><use transform="matrix(0.05,0,0,0.05,5.95,0)" xlink:href="#ab"/><use transform="matrix(0.05,0,0,0.05,15.949999999999998,0)" xlink:href="#ay"/><use transform="matrix(0.05,0,0,0.05,25.950000000000003,0)" xlink:href="#aw"/><use transform="matrix(0.05,0,0,0.05,35.95,0)" xlink:href="#ak"/><use transform="matrix(0.05,0,0,0.05,39.900000000000006,0)" xlink:href="#al"/><use transform="matrix(0.05,0,0,0.05,45.85000000000001,0)" xlink:href="#ab"/><use transform="matrix(0.05,0,0,0.05,55.85,0)" xlink:href="#ac"/><use transform="matrix(0.05,0,0,0.05,65.85000000000001,0)" xlink:href="#an"/></g><path fill="#333" d="M199 0l-22-63H83L61 0H9l90-248h61L250 0h-51zm-33-102l-36-108c-10 38-24 72-36 108h72" id="aB"/><path fill="#333" d="M24-248c93 1 206-16 204 79-1 75-69 88-152 82V0H24v-248zm52 121c47 0 100 7 100-41 0-47-54-39-100-39v80" id="aC"/><g id="J"><use transform="matrix(0.04938271604938272,0,0,0.04938271604938272,0,0)" xlink:href="#aB"/><use transform="matrix(0.04938271604938272,0,0,0.04938271604938272,12.790123456790125,0)" xlink:href="#aC"/><use transform="matrix(0.04938271604938272,0,0,0.04938271604938272,24.641975308641978,0)" xlink:href="#aC"/></g><path fill="#333" d="M135-194c53 0 70 44 70 98 0 56-19 98-73 100-31 1-45-17-59-34 3 33 2 69 2 105H25l-1-265h48c2 10 0 23 3 31 11-24 29-35 60-35zM114-30c33 0 39-31 40-66 0-38-9-64-40-64-56 0-55 130 0 130" id="aD"/><g id="K"><use transform="matrix(0.04938271604938272,0,0,0.04938271604938272,0,0)" xlink:href="#aB"/><use transform="matrix(0.04938271604938272,0,0,0.04938271604938272,12.790123456790125,0)" xlink:href="#aD"/><use transform="matrix(0.04938271604938272,0,0,0.04938271604938272,23.60493827160494,0)" xlink:href="#aD"/></g><path fill="#333" d="M238-95c0 69-44 99-111 99C63 4 22-25 22-93v-155h51v151c-1 38 19 59 55 60 90 1 49-130 58-211h52v153" id="aE"/><path fill="#333" d="M195-6C206 82 75 100 31 46c-4-6-6-13-8-21l49-6c3 16 16 24 34 25 40 0 42-37 40-79-11 22-30 35-61 35-53 0-70-43-70-97 0-56 18-96 73-97 30 0 46 14 59 34l2-30h47zm-90-29c32 0 41-27 41-63 0-35-9-62-40-62-32 0-39 29-40 63 0 36 9 62 39 62" id="aF"/><path fill="#333" d="M135-150c-39-12-60 13-60 57V0H25l-1-190h47c2 13-1 29 3 40 6-28 27-53 61-41v41" id="aG"/><path fill="#333" d="M133-34C117-15 103 5 69 4 32 3 11-16 11-54c-1-60 55-63 116-61 1-26-3-47-28-47-18 1-26 9-28 27l-52-2c7-38 36-58 82-57s74 22 75 68l1 82c-1 14 12 18 25 15v27c-30 8-71 5-69-32zm-48 3c29 0 43-24 42-57-32 0-66-3-65 30 0 17 8 27 23 27" id="aH"/><path fill="#333" d="M88-194c31-1 46 15 58 34l-1-101h50l1 261h-48c-2-10 0-23-3-31C134-8 116 4 84 4 32 4 16-41 15-95c0-56 19-97 73-99zm17 164c33 0 40-30 41-66 1-37-9-64-41-64s-38 30-39 65c0 43 13 65 39 65" id="aI"/><path fill="#333" d="M185-48c-13 30-37 53-82 52C43 2 14-33 14-96s30-98 90-98c62 0 83 45 84 108H66c0 31 8 55 39 56 18 0 30-7 34-22zm-45-69c5-46-57-63-70-21-2 6-4 13-4 21h74" id="aJ"/><g id="L"><use transform="matrix(0.04938271604938272,0,0,0.04938271604938272,0,0)" xlink:href="#aE"/><use transform="matrix(0.04938271604938272,0,0,0.04938271604938272,12.790123456790125,0)" xlink:href="#aD"/><use transform="matrix(0.04938271604938272,0,0,0.04938271604938272,23.60493827160494,0)" xlink:href="#aF"/><use transform="matrix(0.04938271604938272,0,0,0.04938271604938272,34.41975308641975,0)" xlink:href="#aG"/><use transform="matrix(0.04938271604938272,0,0,0.04938271604938272,41.333333333333336,0)" xlink:href="#aH"/><use transform="matrix(0.04938271604938272,0,0,0.04938271604938272,51.20987654320988,0)" xlink:href="#aI"/><use transform="matrix(0.04938271604938272,0,0,0.04938271604938272,62.0246913580247,0)" xlink:href="#aJ"/></g><path fill="#333" d="M62-99C39-31 123 0 170-40s38-139 58-208h34C234-144 253 4 115 4 49 4 18-43 31-112l26-136h34" id="aK"/><path fill="#333" d="M55-144c13 50 104 24 104 88C159 21 15 23 1-39l26-10c6 40 102 42 102-4-13-50-104-23-104-87 0-71 143-71 148-8l-29 4c-5-35-85-37-89 0" id="aL"/><path fill="#333" d="M111-194c62-3 86 47 72 106H45c-7 38 6 69 45 68 27-1 43-14 53-32l24 11C152-15 129 4 87 4 38 3 12-23 12-71c0-70 32-119 99-123zm44 81c14-66-71-72-95-28-4 8-8 17-11 28h106" id="aM"/><path fill="#333" d="M66-151c12-25 30-51 66-40l-6 26C45-176 58-65 38 0H6l36-190h30" id="aN"/><g id="M"><use transform="matrix(0.04938271604938272,0,0,0.04938271604938272,0,0)" xlink:href="#aK"/><use transform="matrix(0.04938271604938272,0,0,0.04938271604938272,12.790123456790125,0)" xlink:href="#aL"/><use transform="matrix(0.04938271604938272,0,0,0.04938271604938272,21.679012345679013,0)" xlink:href="#aM"/><use transform="matrix(0.04938271604938272,0,0,0.04938271604938272,31.555555555555557,0)" xlink:href="#aN"/></g><path fill="#333" d="M20-101c0-91 52-143 145-150 126-9 127 168 53 223-23 17-55 32-93 32C57 4 20-33 20-101zm216-33c5-57-18-91-73-90-77 1-110 51-110 125 0 49 23 75 73 75 72-1 104-45 110-110" id="aO"/><path fill="#333" d="M67-162c32-53 139-36 121 50C175-51 163 2 97 4 68 4 52-11 42-31 38 6 28 39 22 75H-9l50-265h29c-1 10 0 20-3 28zm89 36c0-26-10-43-35-43-54 0-67 50-69 103-1 29 14 45 42 46 53 0 62-58 62-106" id="aP"/><path fill="#333" d="M67-158c22-48 132-52 116 29L158 0h-32l25-140c3-38-53-32-70-12C52-117 51-52 38 0H6l36-190h30" id="aQ"/><g id="N"><use transform="matrix(0.04938271604938272,0,0,0.04938271604938272,0,0)" xlink:href="#aO"/><use transform="matrix(0.04938271604938272,0,0,0.04938271604938272,13.827160493827162,0)" xlink:href="#aP"/><use transform="matrix(0.04938271604938272,0,0,0.04938271604938272,23.703703703703706,0)" xlink:href="#aM"/><use transform="matrix(0.04938271604938272,0,0,0.04938271604938272,33.580246913580254,0)" xlink:href="#aQ"/><use transform="matrix(0.04938271604938272,0,0,0.04938271604938272,43.4567901234568,0)" xlink:href="#aL"/></g><path fill="#333" d="M187 0l-14-72H61L19 0h-37l149-248h38L221 0h-34zm-19-99l-22-123L76-99h92" id="aR"/><g id="O"><use transform="matrix(0.04938271604938272,0,0,0.04938271604938272,0,0)" xlink:href="#aR"/><use transform="matrix(0.04938271604938272,0,0,0.04938271604938272,11.851851851851853,0)" xlink:href="#aP"/><use transform="matrix(0.04938271604938272,0,0,0.04938271604938272,21.7283950617284,0)" xlink:href="#aP"/></g><g id="P"><use transform="matrix(0.05,0,0,0.05,0,0)" xlink:href="#ao"/><use transform="matrix(0.05,0,0,0.05,12,0)" xlink:href="#ap"/><use transform="matrix(0.05,0,0,0.05,24.950000000000003,0)" xlink:href="#aq"/></g><path fill="#3a414a" d="M212-179c-10-28-35-45-73-45-59 0-87 40-87 99 0 60 29 101 89 101 43 0 62-24 78-52l27 14C228-24 195 4 139 4 59 4 22-46 18-125c-6-104 99-153 187-111 19 9 31 26 39 46" id="aS"/><g id="Q"><use transform="matrix(0.05,0,0,0.05,0,0)" xlink:href="#aS"/><use transform="matrix(0.05,0,0,0.05,12.950000000000001,0)" xlink:href="#ag"/><use transform="matrix(0.05,0,0,0.05,22.950000000000003,0)" xlink:href="#ab"/><use transform="matrix(0.05,0,0,0.05,32.95,0)" xlink:href="#ah"/><use transform="matrix(0.05,0,0,0.05,41.95,0)" xlink:href="#ai"/><use transform="matrix(0.05,0,0,0.05,50.95,0)" xlink:href="#aa"/></g><g id="R"><use transform="matrix(0.05,0,0,0.05,0,0)" xlink:href="#aj"/><use transform="matrix(0.05,0,0,0.05,12.950000000000001,0)" xlink:href="#ak"/><use transform="matrix(0.05,0,0,0.05,16.900000000000002,0)" xlink:href="#af"/><use transform="matrix(0.05,0,0,0.05,21.900000000000002,0)" xlink:href="#ag"/></g><g id="S"><use transform="matrix(0.05,0,0,0.05,0,0)" xlink:href="#ao"/><use transform="matrix(0.05,0,0,0.05,12,0)" xlink:href="#ab"/><use transform="matrix(0.05,0,0,0.05,22,0)" xlink:href="#al"/><use transform="matrix(0.05,0,0,0.05,27.950000000000003,0)" xlink:href="#am"/><use transform="matrix(0.05,0,0,0.05,36.95,0)" xlink:href="#ak"/><use transform="matrix(0.05,0,0,0.05,40.900000000000006,0)" xlink:href="#ah"/><use transform="matrix(0.05,0,0,0.05,49.900000000000006,0)" xlink:href="#ab"/></g><g id="T"><use transform="matrix(0.05,0,0,0.05,0,0)" xlink:href="#ao"/><use transform="matrix(0.05,0,0,0.05,12,0)" xlink:href="#ab"/><use transform="matrix(0.05,0,0,0.05,22,0)" xlink:href="#al"/><use transform="matrix(0.05,0,0,0.05,27.950000000000003,0)" xlink:href="#am"/><use transform="matrix(0.05,0,0,0.05,36.95,0)" xlink:href="#ak"/><use transform="matrix(0.05,0,0,0.05,40.900000000000006,0)" xlink:href="#ah"/><use transform="matrix(0.05,0,0,0.05,49.900000000000006,0)" xlink:href="#ab"/></g><path fill="#3a414a" d="M233-177c-1 41-23 64-60 70L243 0h-38l-65-103H63V0H30v-248c88 3 205-21 203 71zM63-129c60-2 137 13 137-47 0-61-80-42-137-45v92" id="aT"/><g id="U"><use transform="matrix(0.05,0,0,0.05,0,0)" xlink:href="#aT"/><use transform="matrix(0.05,0,0,0.05,12.950000000000001,0)" xlink:href="#ab"/><use transform="matrix(0.05,0,0,0.05,22.950000000000003,0)" xlink:href="#aa"/><use transform="matrix(0.05,0,0,0.05,31.950000000000003,0)" xlink:href="#av"/><use transform="matrix(0.05,0,0,0.05,41.95,0)" xlink:href="#ad"/><use transform="matrix(0.05,0,0,0.05,51.95,0)" xlink:href="#ae"/><use transform="matrix(0.05,0,0,0.05,61.95,0)" xlink:href="#ac"/><use transform="matrix(0.05,0,0,0.05,71.95,0)" xlink:href="#aa"/></g></defs></g></svg>